# xmcd
#
# Track frame offsets: 
#        180
#        20287
#        36241
#        50235
#        71487
#        83018
#        98741
#        114249
#        133374
#        146686
#        156776
#        175381
#
# Disc length: 2581 seconds
#
# Revision: 0
# Processed by: cddbd v1.5.1PL2 Copyright (c) Steve Scherf et al.
# Submitted via: ExactAudioCopy v0.95a5
#
DISCID=a40a130c
DTITLE=Brian Sklar - '57
DYEAR=1900
DGENRE=Country
TTITLE0=Rodeo Red's
TTITLE1=Remind Me To Remember
TTITLE2=Massive Heart Attack
TTITLE3=Hollywood
TTITLE4=Invitation To The Blues
TTITLE5=Boogie 'Til The Cows Come Home
TTITLE6=57
TTITLE7=Adobe Hacienda
TTITLE8=Not Right Now
TTITLE9=You Sold The Farm
TTITLE10=Dancetown USA
TTITLE11=West Coast Flyer
EXTD=
EXTT0=
EXTT1=
EXTT2=
EXTT3=
EXTT4=
EXTT5=
EXTT6=
EXTT7=
EXTT8=
EXTT9=
EXTT10=
EXTT11=
PLAYORDER=
